<?xml version="1.0" encoding="UTF-8"?>
<svg width="389px" height="60px" viewBox="0 0 389 60" version="1.1" xmlns="http://www.w3.org/2000/svg" xmlns:xlink="http://www.w3.org/1999/xlink">
    <!-- Generator: Sketch 41.2 (35397) - http://www.bohemiancoding.com/sketch -->
    <title>logo</title>
    <desc>Created with Sketch.</desc>
    <defs></defs>
    <g id="Page-1" stroke="none" stroke-width="1" fill="none" fill-rule="evenodd">
        <g id="logo" fill="#FFFFFF">
            <path d="M49.6390078,7.80008133 L15.7503709,7.80008133 C13.6771531,7.80008133 11.9972816,6.09626922 11.9972816,3.99350499 C11.9972816,1.89074077 13.6771531,0.186928662 15.7503709,0.186928662 L49.6390078,0.186928662 C51.7122257,0.186928662 53.3920972,1.89074077 53.3920972,3.99350499 C53.3920972,6.09626922 51.7122257,7.80008133 49.6390078,7.80008133" id="Fill-1"></path>
            <path d="M26.5269749,24.8690606 L3.75417598,24.8690606 C1.6809581,24.8690606 0.00108659218,23.1652484 0.00108659218,21.0624842 C0.00108659218,18.95972 1.6809581,17.2559079 3.75417598,17.2559079 L26.5269749,17.2559079 C28.6001927,17.2559079 30.2800642,18.95972 30.2800642,21.0624842 C30.2800642,23.1652484 28.6001927,24.8690606 26.5269749,24.8690606" id="Fill-3"></path>
            <path d="M26.5269749,41.9384806 L3.75417598,41.9384806 C1.6809581,41.9384806 0.00108659218,40.2346685 0.00108659218,38.1319043 C0.00108659218,36.02914 1.6809581,34.3253279 3.75417598,34.3253279 L26.5269749,34.3253279 C28.6001927,34.3253279 30.2800642,36.02914 30.2800642,38.1319043 C30.2800642,40.2346685 28.6001927,41.9384806 26.5269749,41.9384806" id="Fill-5"></path>
            <path d="M49.0285603,59.0072394 L15.1399235,59.0072394 C13.0667056,59.0072394 11.3868341,57.3034273 11.3868341,55.2006631 C11.3868341,53.0978989 13.0667056,51.3940867 15.1399235,51.3940867 L49.0285603,51.3940867 C51.1017782,51.3940867 52.7816497,53.0978989 52.7816497,55.2006631 C52.7816497,57.3034273 51.1017782,59.0072394 49.0285603,59.0072394" id="Fill-7"></path>
            <path d="M113.19009,48.7883343 C112.012224,48.1579458 111.05385,48.4687317 110.443185,49.6413424 C108.491665,53.2451364 105.442688,55.0723812 101.381006,55.0723812 L101.055028,55.0723812 C98.208157,55.0723812 95.7459391,54.0386324 93.7422631,52.004197 C91.7385872,49.9675574 90.7215369,47.4680452 90.7215369,44.5739892 L90.7215369,25.8298519 C90.7215369,22.9357959 91.736414,20.4517128 93.7400899,18.4437272 C95.7459391,16.4357417 98.2059838,15.4174219 101.055028,15.4174219 L101.381006,15.4174219 C105.442688,15.4174219 108.491665,17.2402584 110.441012,20.8308275 C111.056023,22.0210714 111.983973,22.3362656 113.118375,21.6948564 C114.291894,21.0049558 114.580928,20.0373316 113.959397,18.9021915 C111.240744,13.8392466 106.994341,11.2714056 101.337542,11.2714056 L101.011565,11.2714056 C97.0737547,11.2714056 93.6553358,12.7129232 90.8562743,15.5518754 C88.0550397,18.3930316 86.6359503,21.8579639 86.6359503,25.8518934 L86.6359503,44.6357055 C86.6359503,48.6318392 88.0550397,52.0967715 90.8562743,54.9357236 C93.6553358,57.7746757 97.0715816,59.2161933 101.011565,59.2161933 L101.337542,59.2161933 C106.994341,59.2161933 111.240744,56.6505565 113.96157,51.5832033 C114.580928,50.3885511 114.315799,49.423131 113.19009,48.7883343" id="Fill-9"></path>
            <g id="Group-13" stroke-width="1" transform="translate(123.871508, 10.724775)">
                <path d="M25.9402151,15.1052972 L25.9402151,33.8494345 C25.9402151,36.7434905 24.9275112,39.2430027 22.9303547,41.2796423 C20.9353715,43.3140777 18.4861927,44.3478266 15.6501872,44.3478266 L15.3242095,44.3478266 C12.4882039,44.3478266 10.0390251,43.3140777 8.04186872,41.2796423 C6.04688547,39.2430027 5.03418156,36.7434905 5.03418156,33.8494345 L5.03418156,15.1052972 C5.03418156,12.2112412 6.04471229,9.72715808 8.03969553,7.71917254 C10.036852,5.71118699 12.4882039,4.69286721 15.3242095,4.69286721 L15.6501872,4.69286721 C18.4861927,4.69286721 20.9353715,5.71118699 22.9325279,7.71917254 C24.9275112,9.72715808 25.9402151,12.2134453 25.9402151,15.1052972 M15.6501872,0.546850949 L15.3242095,0.546850949 C11.3863994,0.546850949 7.96798045,1.98616441 5.16891899,4.82732069 C2.36768436,7.66847696 0.948594972,11.1334092 0.948594972,15.1273388 L0.948594972,33.9111509 C0.948594972,37.9050804 2.36768436,41.3722168 5.16891899,44.2111689 C7.96798045,47.050121 11.3842263,48.4916387 15.3242095,48.4916387 L15.6501872,48.4916387 C19.5879972,48.4916387 23.0064162,47.050121 25.8054777,44.2111689 C28.6067123,41.3700126 30.0258017,37.9050804 30.0258017,33.9111509 L30.0258017,15.1273388 C30.0258017,11.1356134 28.6067123,7.66847696 25.8054777,4.82732069 C23.004243,1.98616441 19.5879972,0.546850949 15.6501872,0.546850949" id="Fill-11"></path>
            </g>
            <path d="M189.635544,44.3478428 C189.635544,47.1912033 188.62284,49.6686739 186.627857,51.7097218 C184.630701,53.7485655 182.181522,54.7845185 179.345516,54.7845185 L168.729511,54.7845185 L168.729511,15.665169 L179.345516,15.665169 C182.183695,15.665169 184.632874,16.6989178 186.627857,18.7399657 C188.62284,20.7788094 189.635544,23.2827299 189.635544,26.1856026 L189.635544,44.3478428 Z M189.516019,15.8106432 C186.723477,12.9628745 183.315924,11.5213568 179.393326,11.5213568 L166.686717,11.5213568 C165.350209,11.5213568 164.643924,12.2244824 164.643924,13.5557923 L164.643924,56.8916911 C164.643924,58.2252051 165.350209,58.9283306 166.686717,58.9283306 L179.065175,58.9283306 L179.393326,58.9283306 C183.315924,58.9283306 186.723477,57.486813 189.516019,54.6390443 C192.306388,51.7956839 193.721131,48.3241391 193.721131,44.321393 L193.721131,26.1282945 C193.721131,22.1255484 192.306388,18.6540036 189.516019,15.8106432 L189.516019,15.8106432 Z" id="Fill-14"></path>
            <polygon id="Fill-16" points="208.554201 56.8936748 208.554201 56.8936748 208.554201 56.895879"></polygon>
            <path d="M208.553766,13.5568943 L208.553766,13.5590985 L208.553766,13.5590985 L208.553766,13.5568943 Z M229.414163,37.3573641 C230.726766,37.3573641 231.420012,36.6410136 231.420012,35.285458 C231.420012,33.9299025 230.726766,33.213552 229.414163,33.213552 L208.553766,33.213552 L208.553766,15.666271 L229.414163,15.666271 C230.726766,15.666271 231.420012,14.9499205 231.420012,13.594365 C231.420012,12.2366053 230.726766,11.5202548 229.414163,11.5202548 L206.510973,11.5202548 C205.174464,11.5202548 204.468179,12.2255845 204.468179,13.5568943 L204.468179,56.890589 C204.468179,58.224103 205.174464,58.9294327 206.510973,58.9294327 L229.414163,58.9294327 C230.726766,58.9294327 231.420012,58.2130822 231.420012,56.8575267 C231.420012,55.499767 230.726766,54.7834165 229.414163,54.7834165 L208.553766,54.7834165 L208.553766,37.3573641 L229.414163,37.3573641 Z" id="Fill-18"></path>
            <path d="M325.442398,13.5568943 L325.442398,13.5590985 L325.442398,13.5590985 L325.442398,13.5568943 Z M346.302795,37.3573641 C347.615398,37.3573641 348.308644,36.6410136 348.308644,35.285458 C348.308644,33.9299025 347.615398,33.213552 346.302795,33.213552 L325.442398,33.213552 L325.442398,15.666271 L346.302795,15.666271 C347.615398,15.666271 348.308644,14.9499205 348.308644,13.594365 C348.308644,12.2366053 347.615398,11.5202548 346.302795,11.5202548 L323.399605,11.5202548 C322.063097,11.5202548 321.356812,12.2255845 321.356812,13.5568943 L321.356812,56.890589 C321.356812,58.224103 322.063097,58.9294327 323.399605,58.9294327 L346.302795,58.9294327 C347.615398,58.9294327 348.308644,58.2130822 348.308644,56.8575267 C348.308644,55.499767 347.615398,54.7834165 346.302795,54.7834165 L325.442398,54.7834165 L325.442398,37.3573641 L346.302795,37.3573641 Z" id="Fill-20"></path>
            <path d="M374.374252,35.2841355 L363.160621,35.2841355 L363.160621,15.671561 L374.298191,15.671561 C374.324269,15.671561 374.348174,15.6649485 374.374252,15.6649485 C379.715939,15.6649485 384.047096,20.055626 384.047096,25.47344 C384.047096,30.8912539 379.715939,35.2841355 374.374252,35.2841355 M374.374252,11.5409738 L374.374252,11.5211364 L359.053302,11.5211364 L359.053302,56.8936748 C359.053302,58.2249847 359.759587,58.9281102 361.096096,58.9281102 C362.434777,58.9281102 363.141062,58.2249847 363.141062,56.8936748 L363.141062,39.4081102 L374.374252,39.4081102 C381.960839,39.4081102 388.11095,33.1703505 388.11095,25.47344 C388.11095,17.7787335 381.960839,11.5409738 374.374252,11.5409738" id="Fill-22"></path>
            <path d="M257.485837,35.2841355 L246.272206,35.2841355 L246.272206,15.671561 L257.409775,15.671561 C257.435854,15.671561 257.459759,15.6649485 257.485837,15.6649485 C262.827524,15.6649485 267.15868,20.055626 267.15868,25.47344 C267.15868,30.8912539 262.827524,35.2841355 257.485837,35.2841355 M257.485837,11.5409738 L257.485837,11.5211364 L242.164887,11.5211364 L242.164887,56.8936748 C242.164887,58.2249847 242.871172,58.9281102 244.20768,58.9281102 C245.546362,58.9281102 246.252647,58.2249847 246.252647,56.8936748 L246.252647,39.4081102 L257.485837,39.4081102 C265.072423,39.4081102 271.222535,33.1703505 271.222535,25.47344 C271.222535,17.7787335 265.072423,11.5409738 257.485837,11.5409738" id="Fill-24"></path>
            <path d="M296.516011,35.2841355 L285.302379,35.2841355 L285.302379,15.671561 L296.439949,15.671561 C296.466027,15.671561 296.489932,15.6649485 296.516011,15.6649485 C301.857698,15.6649485 306.188854,20.055626 306.188854,25.47344 C306.188854,30.8559874 301.912027,35.2158067 296.620323,35.2731148 C296.585553,35.2731148 296.552955,35.2841355 296.516011,35.2841355 M310.828603,55.5645691 L299.312899,39.1171617 C305.558631,37.8056893 310.252709,32.198318 310.252709,25.47344 C310.252709,17.7787335 304.102597,11.5409738 296.516011,11.5409738 L296.516011,11.5211364 L281.195061,11.5211364 L281.195061,13.5555718 L281.195061,39.4081102 L281.195061,56.8936748 C281.195061,58.2249847 281.901346,58.9281102 283.237854,58.9281102 C284.576536,58.9281102 285.282821,58.2249847 285.282821,56.8936748 L285.282821,39.4081102 L294.438446,39.4081102 L307.488418,57.9715068 C307.968692,58.6481825 308.531547,58.967785 309.163944,58.9259061 C309.537731,58.8994562 309.933251,58.740757 310.341809,58.4520127 C311.421882,57.6695375 311.591391,56.6732593 310.828603,55.5645691" id="Fill-26"></path>
        </g>
    </g>
</svg>